<svg width="161" height="163" viewBox="0 0 161 163" fill="none" xmlns="http://www.w3.org/2000/svg">
<g clip-path="url(#clip0_31_160)">
<path d="M24.2474 130.248C25.1988 129.233 26.3394 128.457 27.6644 127.924C28.9943 127.397 30.4736 127.128 32.1124 127.128C34.1944 127.128 36.0623 127.606 37.7209 128.556C39.3796 129.507 40.8938 130.845 42.2686 132.566L52.1608 123.75C49.8596 120.745 46.9507 118.447 43.4291 116.854C39.9126 115.262 35.873 114.466 31.3154 114.466C27.5996 114.466 24.1578 115.053 20.9948 116.223C17.8319 117.397 15.0874 119.063 12.7613 121.228C10.4402 123.397 8.63206 125.959 7.35195 128.919C6.06686 131.88 5.42432 135.154 5.42432 138.731C5.42432 142.308 6.06686 145.582 7.35195 148.542C8.63704 151.507 10.4402 154.069 12.7613 156.234C15.0824 158.403 17.8269 160.07 20.9948 161.239C24.1578 162.408 27.5996 162.995 31.3154 162.995C35.873 162.995 39.9126 162.189 43.4291 160.572C46.9457 158.96 49.8546 156.672 52.1608 153.711L42.2686 144.895C40.8988 146.617 39.3796 147.955 37.7209 148.905C36.0623 149.855 34.1894 150.333 32.1124 150.333C30.4736 150.333 28.9943 150.064 27.6644 149.537C26.3394 149.005 25.1988 148.234 24.2474 147.219C23.296 146.204 22.5539 144.975 22.0209 143.537C21.488 142.099 21.224 140.497 21.224 138.731C21.224 136.965 21.488 135.362 22.0209 133.925C22.5539 132.487 23.2911 131.263 24.2474 130.243V130.248Z" fill="white"/>
<path d="M76.6471 115.526L56.3347 161.94H72.2688L75.382 153.85H93.0545L96.1676 161.94H112.366L92.0533 115.526H76.6521H76.6471ZM79.7154 142.581L84.2132 130.89L88.711 142.581H79.7154Z" fill="white"/>
<path d="M120.191 161.94H135.592V127.661H155.576V115.526H120.191V161.94Z" fill="white"/>
<path d="M81.1699 20.9658C67.2282 20.9658 55.5628 30.8965 52.8979 44.0511H43.2249C45.9993 25.6276 61.9484 11.4581 81.15 11.4481V11.4382H112.924C104.292 4.29864 93.2239 0 81.1699 0C64.4339 0 49.5956 8.28383 40.5501 20.9658H0L5.42926 32.4139H34.4634C33.0836 36.1056 32.1323 40.0062 31.664 44.0511H10.9482L16.3774 55.4992H97.5823C95.2113 62.2606 88.7709 67.1264 81.2048 67.1364C81.1948 67.1364 81.1849 67.1364 81.1699 67.1364H34.4584C35.9875 71.236 38.0447 75.0769 40.5401 78.5845C40.5401 78.5845 81.1152 78.5845 81.145 78.5845C81.155 78.5845 81.16 78.5845 81.1699 78.5845C95.1117 78.5845 106.777 68.6489 109.442 55.4942H119.12C116.346 73.9276 100.387 88.1072 81.1699 88.1072H49.4063C58.0383 95.2566 69.106 99.5553 81.1699 99.5553C106.712 99.5553 127.827 80.2562 130.676 55.4942H144.628L150.057 44.0461H64.7626C67.1336 37.2847 73.5789 32.4189 81.15 32.409H155.576L161.005 20.9559H81.1749L81.1699 20.9658Z" fill="white"/>
</g>
<defs>
<clipPath id="clip0_31_160">
<rect width="161" height="163" fill="white"/>
</clipPath>
</defs>
</svg>
